<svg width="174" height="112" viewBox="0 0 174 112" fill="none" xmlns="http://www.w3.org/2000/svg">
<path d="M111.168 4.09205C92.3684 -1.50795 72.6684 1.75872 65.1684 4.09205V12.592L71.1684 11.092V8.09204C85.1684 5.29204 99.6684 6.92537 105.168 8.09204C104.768 22.892 95.335 37.592 90.6684 43.092L94.6684 46.592C104.668 38.092 113.168 10.592 111.168 4.09205Z" fill="#6EC52F"/>
<path d="M99.7233 64.2465C113.57 50.3517 120.038 31.4591 121.541 23.7497L114.058 19.7182L112.533 25.7118L115.174 27.1347C110.999 40.7878 102.683 52.7785 99.0476 57.0671C86.208 49.6954 77.7408 34.4184 75.1122 27.7014L70.1337 29.5628C72.8738 42.398 93.0523 62.9243 99.7233 64.2465Z" fill="#6EC52F"/>
<path d="M53 22.9008C57.4484 42.0061 70.045 57.5009 75.7872 62.8601L83.171 58.6494L78.8957 54.1804L76.2897 55.6665C66.9221 44.8921 61.1581 31.4871 59.447 26.1314C72.5016 19.1474 89.9442 20.0599 97.0337 21.3892L98.0926 16.1807C85.755 11.7045 57.6557 17.9436 53 22.9008Z" fill="#6EC52F"/>
<path d="M111.168 4.09205C92.3684 -1.50795 72.6684 1.75872 65.1684 4.09205V12.592L71.1684 11.092V8.09204C85.1684 5.29204 99.6684 6.92537 105.168 8.09204C104.768 22.892 95.335 37.592 90.6684 43.092L94.6684 46.592C104.668 38.092 113.168 10.592 111.168 4.09205Z" stroke="#6EC52F"/>
<path d="M99.7233 64.2465C113.57 50.3517 120.038 31.4591 121.541 23.7497L114.058 19.7182L112.533 25.7118L115.174 27.1347C110.999 40.7878 102.683 52.7785 99.0476 57.0671C86.208 49.6954 77.7408 34.4184 75.1122 27.7014L70.1337 29.5628C72.8738 42.398 93.0523 62.9243 99.7233 64.2465Z" stroke="#6EC52F"/>
<path d="M53 22.9008C57.4484 42.0061 70.045 57.5009 75.7872 62.8601L83.171 58.6494L78.8957 54.1804L76.2897 55.6665C66.9221 44.8921 61.1581 31.4871 59.447 26.1314C72.5016 19.1474 89.9442 20.0599 97.0337 21.3892L98.0926 16.1807C85.755 11.7045 57.6557 17.9436 53 22.9008Z" stroke="#6EC52F"/>
<path d="M12.7638 104.935C10.9437 104.935 9.24865 104.659 7.67876 104.106C6.13164 103.533 4.7779 102.736 3.61755 101.717C2.47996 100.676 1.59263 99.4548 0.95558 98.0529C0.318527 96.6511 0 95.1218 0 93.465C0 91.8083 0.318527 90.279 0.95558 88.8772C1.59263 87.4753 2.49133 86.2646 3.65168 85.2451C4.81203 84.2043 6.16576 83.4078 7.71289 82.8556C9.26002 82.2821 10.955 81.9954 12.7979 81.9954C14.7546 81.9954 16.5406 82.314 18.156 82.9512C19.7714 83.5671 21.1365 84.4911 22.2514 85.723L19.3846 88.24C18.52 87.3691 17.5531 86.7213 16.4837 86.2965C15.4144 85.8504 14.2541 85.6274 13.0027 85.6274C11.7514 85.6274 10.6024 85.8186 9.5558 86.2009C8.53196 86.5832 7.63326 87.1249 6.8597 87.8258C6.10888 88.5267 5.51733 89.3551 5.08505 90.3109C4.67551 91.2667 4.47075 92.3181 4.47075 93.465C4.47075 94.612 4.67551 95.6634 5.08505 96.6192C5.51733 97.575 6.10888 98.4034 6.8597 99.1043C7.63326 99.8052 8.53196 100.347 9.5558 100.729C10.6024 101.111 11.7514 101.303 13.0027 101.303C14.2541 101.303 15.4144 101.09 16.4837 100.665C17.5531 100.219 18.52 99.5503 19.3846 98.6583L22.2514 101.207C21.1365 102.418 19.7714 103.342 18.156 103.979C16.5406 104.616 14.7432 104.935 12.7638 104.935Z" fill="#202A50"/>
<path d="M28.1064 111.02C27.2191 111.02 26.3318 110.882 25.4444 110.606C24.5571 110.33 23.8177 109.947 23.2261 109.459L24.9325 106.528C25.3648 106.889 25.854 107.176 26.4 107.388C26.9461 107.6 27.5035 107.707 28.0723 107.707C28.8458 107.707 29.4715 107.526 29.9493 107.165C30.4271 106.804 30.8708 106.199 31.2803 105.349L32.3383 103.119L32.6795 102.641L39.5734 87.6028H43.6687L35.1367 105.986C34.5679 107.261 33.9309 108.269 33.2256 109.013C32.543 109.756 31.7695 110.277 30.9049 110.574C30.0631 110.871 29.1302 111.02 28.1064 111.02ZM31.8605 105.221L23.6357 87.6028H28.0723L34.7613 102.29L31.8605 105.221Z" fill="#202A50"/>
<path d="M56.9487 104.839C55.4016 104.839 54.0251 104.521 52.8192 103.883C51.6134 103.246 50.6578 102.29 49.9525 101.016C49.2699 99.7203 48.9287 98.0848 48.9287 96.1094C48.9287 94.1129 49.2813 92.4774 49.9866 91.203C50.7147 89.9286 51.6816 88.9834 52.8875 88.3674C54.1161 87.7302 55.4698 87.4116 56.9487 87.4116C58.7461 87.4116 60.3274 87.7727 61.6925 88.4948C63.0803 89.217 64.1724 90.2259 64.9687 91.5216C65.7878 92.8172 66.1973 94.3465 66.1973 96.1094C66.1973 97.8724 65.7878 99.4017 64.9687 100.697C64.1724 101.993 63.0803 103.012 61.6925 103.756C60.3274 104.478 58.7461 104.839 56.9487 104.839ZM46.8469 104.616V80.9758H51.1128V91.5534L50.7716 96.0776L50.9081 100.602V104.616H46.8469ZM56.4709 101.43C57.4947 101.43 58.4048 101.218 59.2011 100.793C60.0202 100.368 60.6686 99.7521 61.1464 98.945C61.6242 98.1379 61.8631 97.1927 61.8631 96.1094C61.8631 95.0049 61.6242 94.0598 61.1464 93.2739C60.6686 92.4668 60.0202 91.8508 59.2011 91.426C58.4048 91.0012 57.4947 90.7888 56.4709 90.7888C55.4471 90.7888 54.5256 91.0012 53.7066 91.426C52.8875 91.8508 52.2391 92.4668 51.7613 93.2739C51.2835 94.0598 51.0446 95.0049 51.0446 96.1094C51.0446 97.1927 51.2835 98.1379 51.7613 98.945C52.2391 99.7521 52.8875 100.368 53.7066 100.793C54.5256 101.218 55.4471 101.43 56.4709 101.43Z" fill="#202A50"/>
<path d="M79.3211 104.839C77.2962 104.839 75.5215 104.467 73.9972 103.724C72.4955 102.959 71.3238 101.919 70.482 100.602C69.6629 99.2848 69.2534 97.7874 69.2534 96.1094C69.2534 94.4102 69.6515 92.9128 70.4479 91.6171C71.2669 90.3003 72.3818 89.2701 73.7924 88.5267C75.2258 87.7833 76.8525 87.4116 78.6727 87.4116C80.4473 87.4116 82.0286 87.7727 83.4164 88.4948C84.8043 89.217 85.8964 90.2365 86.6927 91.5534C87.489 92.8703 87.8872 94.4208 87.8872 96.205C87.8872 96.3749 87.8758 96.5661 87.8531 96.7785C87.8531 96.9909 87.8417 97.1927 87.8189 97.3838H72.632V94.7394H85.5665L83.8942 95.5678C83.917 94.5908 83.7008 93.7305 83.2458 92.9871C82.7908 92.2437 82.1651 91.6596 81.3688 91.2348C80.5952 90.81 79.6965 90.5976 78.6727 90.5976C77.6261 90.5976 76.7046 90.81 75.9083 91.2348C75.1347 91.6596 74.5204 92.2544 74.0654 93.019C73.6331 93.7624 73.417 94.6439 73.417 95.6634V96.3006C73.417 97.3201 73.6673 98.2228 74.1678 99.0087C74.6683 99.7946 75.3736 100.4 76.2837 100.825C77.1938 101.25 78.2404 101.462 79.4235 101.462C80.4473 101.462 81.3688 101.313 82.1878 101.016C83.0069 100.719 83.735 100.251 84.372 99.6141L86.6586 102.067C85.8395 102.959 84.8043 103.65 83.5529 104.138C82.3243 104.605 80.9137 104.839 79.3211 104.839Z" fill="#202A50"/>
<path d="M92.4968 104.616V87.6028H96.5581V92.2862L96.0803 90.9162C96.6263 89.7693 97.4795 88.8984 98.6399 88.3037C99.823 87.709 101.29 87.4116 103.042 87.4116V91.203C102.86 91.1605 102.69 91.1392 102.53 91.1392C102.371 91.118 102.212 91.1074 102.053 91.1074C100.437 91.1074 99.1518 91.5534 98.1962 92.4455C97.2406 93.3164 96.7628 94.6226 96.7628 96.3643V104.616H92.4968Z" fill="#202A50"/>
<path d="M112.686 104.616L104.871 87.6028H109.307L116.03 102.609H113.846L120.808 87.6028H124.904L117.088 104.616H112.686Z" fill="#202A50"/>
<path d="M128.082 104.616V87.6028H132.348V104.616H128.082Z" fill="#202A50"/>
<path d="M136.957 104.616V102.099L148.185 89.4188L148.97 90.7888H137.162V87.6028H152.383V90.1197L141.155 102.8L140.302 101.43H152.69V104.616H136.957Z" fill="#202A50"/>
<path d="M165.434 104.839C163.409 104.839 161.634 104.467 160.11 103.724C158.608 102.959 157.437 101.919 156.595 100.602C155.776 99.2848 155.366 97.7874 155.366 96.1094C155.366 94.4102 155.764 92.9128 156.561 91.6171C157.38 90.3003 158.495 89.2701 159.905 88.5267C161.339 87.7833 162.965 87.4116 164.785 87.4116C166.56 87.4116 168.141 87.7727 169.529 88.4948C170.917 89.217 172.009 90.2365 172.806 91.5534C173.602 92.8703 174 94.4208 174 96.205C174 96.3749 173.989 96.5661 173.966 96.7785C173.966 96.9909 173.954 97.1927 173.932 97.3838H158.745V94.7394H171.679L170.007 95.5678C170.03 94.5908 169.814 93.7305 169.359 92.9871C168.904 92.2437 168.278 91.6596 167.482 91.2348C166.708 90.81 165.809 90.5976 164.785 90.5976C163.739 90.5976 162.817 90.81 162.021 91.2348C161.248 91.6596 160.633 92.2544 160.178 93.019C159.746 93.7624 159.53 94.6439 159.53 95.6634V96.3006C159.53 97.3201 159.78 98.2228 160.281 99.0087C160.781 99.7946 161.486 100.4 162.397 100.825C163.307 101.25 164.353 101.462 165.536 101.462C166.56 101.462 167.482 101.313 168.301 101.016C169.12 100.719 169.848 100.251 170.485 99.6141L172.771 102.067C171.952 102.959 170.917 103.65 169.666 104.138C168.437 104.605 167.027 104.839 165.434 104.839Z" fill="#202A50"/>
<path d="M130.1 85.25C129.283 85.25 128.607 84.9933 128.07 84.48C127.557 83.9667 127.3 83.3483 127.3 82.625C127.3 81.8783 127.557 81.26 128.07 80.77C128.607 80.2567 129.283 80 130.1 80C130.917 80 131.582 80.245 132.095 80.735C132.632 81.2017 132.9 81.7967 132.9 82.52C132.9 83.29 132.643 83.9433 132.13 84.48C131.617 84.9933 130.94 85.25 130.1 85.25Z" fill="#6EC52F"/>
</svg>
