<svg width="246" height="52" viewBox="0 0 246 52" fill="none" xmlns="http://www.w3.org/2000/svg">
<path d="M84.7638 44.9347C82.9437 44.9347 81.2486 44.6586 79.6788 44.1064C78.1316 43.5329 76.7779 42.7364 75.6176 41.7168C74.48 40.6761 73.5926 39.4548 72.9556 38.0529C72.3185 36.6511 72 35.1218 72 33.465C72 31.8083 72.3185 30.279 72.9556 28.8772C73.5926 27.4753 74.4913 26.2646 75.6517 25.2451C76.812 24.2043 78.1658 23.4078 79.7129 22.8556C81.26 22.2821 82.955 21.9954 84.7979 21.9954C86.7546 21.9954 88.5406 22.314 90.156 22.9512C91.7714 23.5671 93.1365 24.4911 94.2514 25.723L91.3846 28.24C90.52 27.3691 89.5531 26.7213 88.4837 26.2965C87.4144 25.8504 86.2541 25.6274 85.0027 25.6274C83.7514 25.6274 82.6024 25.8186 81.5558 26.2009C80.532 26.5832 79.6333 27.1249 78.8597 27.8258C78.1089 28.5267 77.5173 29.3551 77.085 30.3109C76.6755 31.2667 76.4707 32.3181 76.4707 33.465C76.4707 34.612 76.6755 35.6634 77.085 36.6192C77.5173 37.575 78.1089 38.4034 78.8597 39.1043C79.6333 39.8052 80.532 40.3468 81.5558 40.7292C82.6024 41.1115 83.7514 41.3027 85.0027 41.3027C86.2541 41.3027 87.4144 41.0903 88.4837 40.6654C89.5531 40.2194 90.52 39.5503 91.3846 38.6583L94.2514 41.2071C93.1365 42.4178 91.7714 43.3417 90.156 43.9789C88.5406 44.6161 86.7432 44.9347 84.7638 44.9347Z" fill="#202A50"/>
<path d="M100.106 51.02C99.2191 51.02 98.3318 50.882 97.4444 50.6058C96.5571 50.3297 95.8177 49.9474 95.2261 49.4589L96.9325 46.5277C97.3648 46.8888 97.854 47.1756 98.4 47.388C98.9461 47.6004 99.5035 47.7066 100.072 47.7066C100.846 47.7066 101.472 47.526 101.949 47.1649C102.427 46.8039 102.871 46.1985 103.28 45.3489L104.338 43.1187L104.68 42.6408L111.573 27.6028H115.669L107.137 45.9861C106.568 47.2605 105.931 48.2694 105.226 49.0128C104.543 49.7562 103.769 50.2766 102.905 50.574C102.063 50.8713 101.13 51.02 100.106 51.02ZM103.86 45.2215L95.6357 27.6028H100.072L106.761 42.2903L103.86 45.2215Z" fill="#202A50"/>
<path d="M128.949 44.8391C127.402 44.8391 126.025 44.5205 124.819 43.8833C123.613 43.2461 122.658 42.2903 121.952 41.0159C121.27 39.7203 120.929 38.0848 120.929 36.1094C120.929 34.1129 121.281 32.4774 121.987 31.203C122.715 29.9286 123.682 28.9834 124.887 28.3674C126.116 27.7302 127.47 27.4116 128.949 27.4116C130.746 27.4116 132.327 27.7727 133.692 28.4948C135.08 29.217 136.172 30.2259 136.969 31.5216C137.788 32.8172 138.197 34.3465 138.197 36.1094C138.197 37.8724 137.788 39.4017 136.969 40.6973C136.172 41.993 135.08 43.0125 133.692 43.7559C132.327 44.4781 130.746 44.8391 128.949 44.8391ZM118.847 44.6161V20.9758H123.113V31.5534L122.772 36.0776L122.908 40.6017V44.6161H118.847ZM128.471 41.4301C129.495 41.4301 130.405 41.2177 131.201 40.7929C132.02 40.3681 132.669 39.7521 133.146 38.945C133.624 38.1379 133.863 37.1927 133.863 36.1094C133.863 35.0049 133.624 34.0598 133.146 33.2739C132.669 32.4668 132.02 31.8508 131.201 31.426C130.405 31.0012 129.495 30.7888 128.471 30.7888C127.447 30.7888 126.526 31.0012 125.707 31.426C124.887 31.8508 124.239 32.4668 123.761 33.2739C123.283 34.0598 123.045 35.0049 123.045 36.1094C123.045 37.1927 123.283 38.1379 123.761 38.945C124.239 39.7521 124.887 40.3681 125.707 40.7929C126.526 41.2177 127.447 41.4301 128.471 41.4301Z" fill="#202A50"/>
<path d="M151.321 44.8391C149.296 44.8391 147.522 44.4674 145.997 43.724C144.496 42.9594 143.324 41.9186 142.482 40.6017C141.663 39.2848 141.253 37.7874 141.253 36.1094C141.253 34.4102 141.652 32.9128 142.448 31.6171C143.267 30.3003 144.382 29.2701 145.792 28.5267C147.226 27.7833 148.853 27.4116 150.673 27.4116C152.447 27.4116 154.029 27.7727 155.416 28.4948C156.804 29.217 157.896 30.2365 158.693 31.5534C159.489 32.8703 159.887 34.4208 159.887 36.205C159.887 36.3749 159.876 36.5661 159.853 36.7785C159.853 36.9909 159.842 37.1927 159.819 37.3838H144.632V34.7394H157.566L155.894 35.5678C155.917 34.5908 155.701 33.7305 155.246 32.9871C154.791 32.2437 154.165 31.6596 153.369 31.2348C152.595 30.81 151.696 30.5976 150.673 30.5976C149.626 30.5976 148.705 30.81 147.908 31.2348C147.135 31.6596 146.52 32.2544 146.065 33.019C145.633 33.7624 145.417 34.6439 145.417 35.6634V36.3006C145.417 37.3201 145.667 38.2228 146.168 39.0087C146.668 39.7946 147.374 40.3999 148.284 40.8248C149.194 41.2496 150.24 41.462 151.423 41.462C152.447 41.462 153.369 41.3133 154.188 41.0159C155.007 40.7186 155.735 40.2513 156.372 39.6141L158.659 42.0673C157.84 42.9594 156.804 43.6497 155.553 44.1382C154.324 44.6055 152.914 44.8391 151.321 44.8391Z" fill="#202A50"/>
<path d="M164.497 44.6161V27.6028H168.558V32.2862L168.08 30.9162C168.626 29.7693 169.48 28.8984 170.64 28.3037C171.823 27.709 173.29 27.4116 175.042 27.4116V31.203C174.86 31.1605 174.69 31.1392 174.53 31.1392C174.371 31.118 174.212 31.1074 174.053 31.1074C172.437 31.1074 171.152 31.5534 170.196 32.4455C169.241 33.3164 168.763 34.6226 168.763 36.3643V44.6161H164.497Z" fill="#202A50"/>
<path d="M184.686 44.6161L176.871 27.6028H181.307L188.03 42.6089H185.846L192.808 27.6028H196.904L189.088 44.6161H184.686Z" fill="#202A50"/>
<path d="M200.082 44.6161V27.6028H204.348V44.6161H200.082Z" fill="#202A50"/>
<path d="M208.957 44.6161V42.0992L220.185 29.4188L220.97 30.7888H209.162V27.6028H224.383V30.1197L213.155 42.8001L212.302 41.4301H224.69V44.6161H208.957Z" fill="#202A50"/>
<path d="M237.434 44.8391C235.409 44.8391 233.634 44.4674 232.11 43.724C230.608 42.9594 229.437 41.9186 228.595 40.6017C227.776 39.2848 227.366 37.7874 227.366 36.1094C227.366 34.4102 227.764 32.9128 228.561 31.6171C229.38 30.3003 230.495 29.2701 231.905 28.5267C233.339 27.7833 234.965 27.4116 236.785 27.4116C238.56 27.4116 240.141 27.7727 241.529 28.4948C242.917 29.217 244.009 30.2365 244.806 31.5534C245.602 32.8703 246 34.4208 246 36.205C246 36.3749 245.989 36.5661 245.966 36.7785C245.966 36.9909 245.954 37.1927 245.932 37.3838H230.745V34.7394H243.679L242.007 35.5678C242.03 34.5908 241.814 33.7305 241.359 32.9871C240.904 32.2437 240.278 31.6596 239.482 31.2348C238.708 30.81 237.809 30.5976 236.785 30.5976C235.739 30.5976 234.817 30.81 234.021 31.2348C233.248 31.6596 232.633 32.2544 232.178 33.019C231.746 33.7624 231.53 34.6439 231.53 35.6634V36.3006C231.53 37.3201 231.78 38.2228 232.281 39.0087C232.781 39.7946 233.486 40.3999 234.397 40.8248C235.307 41.2496 236.353 41.462 237.536 41.462C238.56 41.462 239.482 41.3133 240.301 41.0159C241.12 40.7186 241.848 40.2513 242.485 39.6141L244.771 42.0673C243.952 42.9594 242.917 43.6497 241.666 44.1382C240.437 44.6055 239.027 44.8391 237.434 44.8391Z" fill="#202A50"/>
<path d="M202.1 25.25C201.283 25.25 200.607 24.9933 200.07 24.48C199.557 23.9667 199.3 23.3483 199.3 22.625C199.3 21.8783 199.557 21.26 200.07 20.77C200.607 20.2567 201.283 20 202.1 20C202.917 20 203.582 20.245 204.095 20.735C204.632 21.2017 204.9 21.7967 204.9 22.52C204.9 23.29 204.643 23.9433 204.13 24.48C203.617 24.9933 202.94 25.25 202.1 25.25Z" fill="#6EC52F"/>
<path d="M45.1306 3.34667C30.8676 -0.903373 15.9218 1.57582 10.2318 3.34667V9.79761L14.7838 8.65921V6.3824C25.4052 4.25738 36.4059 5.49698 40.5786 6.3824C40.2751 17.6146 33.1183 28.771 29.5779 32.9451L32.6125 35.6014C40.1992 29.1505 46.6479 8.27974 45.1306 3.34667Z" fill="#6EC52F"/>
<path d="M36.4476 49C46.9528 38.4548 51.8597 24.1165 53 18.2656L47.3228 15.2059L46.1656 19.7547L48.1694 20.8346C45.0018 31.1964 38.6933 40.2965 35.935 43.5513C26.1939 37.9566 19.7701 26.3624 17.7759 21.2646L13.9988 22.6773C16.0777 32.4184 31.3865 47.9965 36.4476 49Z" fill="#6EC52F"/>
<path d="M1 17.6213C4.37489 32.121 13.9315 43.8805 18.288 47.9478L23.8898 44.7522L20.6463 41.3605L18.6692 42.4884C11.5623 34.3113 7.18927 24.1377 5.89111 20.0731C15.7953 14.7727 29.0285 15.4652 34.407 16.4741L35.2104 12.5211C25.8503 9.12406 4.53211 13.8591 1 17.6213Z" fill="#6EC52F"/>
<path d="M45.1306 3.34667C30.8676 -0.903373 15.9218 1.57582 10.2318 3.34667V9.79761L14.7838 8.65921V6.3824C25.4052 4.25738 36.4059 5.49698 40.5786 6.3824C40.2751 17.6146 33.1183 28.771 29.5779 32.9451L32.6125 35.6014C40.1992 29.1505 46.6479 8.27974 45.1306 3.34667Z" stroke="#6EC52F"/>
<path d="M36.4476 49C46.9528 38.4548 51.8597 24.1165 53 18.2656L47.3228 15.2059L46.1656 19.7547L48.1694 20.8346C45.0018 31.1964 38.6933 40.2965 35.935 43.5513C26.1939 37.9566 19.7701 26.3624 17.7759 21.2646L13.9988 22.6773C16.0777 32.4184 31.3865 47.9965 36.4476 49Z" stroke="#6EC52F"/>
<path d="M1 17.6213C4.37489 32.121 13.9315 43.8805 18.288 47.9478L23.8898 44.7522L20.6463 41.3605L18.6692 42.4884C11.5623 34.3113 7.18927 24.1377 5.89111 20.0731C15.7953 14.7727 29.0285 15.4652 34.407 16.4741L35.2104 12.5211C25.8503 9.12406 4.53211 13.8591 1 17.6213Z" stroke="#6EC52F"/>
</svg>
