<svg width="174" height="32" viewBox="0 0 174 32" fill="none" xmlns="http://www.w3.org/2000/svg">
<path d="M12.7638 24.9347C10.9437 24.9347 9.24865 24.6586 7.67876 24.1064C6.13164 23.5329 4.7779 22.7364 3.61755 21.7168C2.47996 20.6761 1.59263 19.4548 0.95558 18.0529C0.318527 16.6511 0 15.1218 0 13.465C0 11.8083 0.318527 10.279 0.95558 8.87717C1.59263 7.47532 2.49133 6.26463 3.65168 5.2451C4.81203 4.20433 6.16576 3.40783 7.71289 2.85558C9.26002 2.2821 10.955 1.99536 12.7979 1.99536C14.7546 1.99536 16.5406 2.31396 18.156 2.95116C19.7714 3.56713 21.1365 4.49107 22.2514 5.723L19.3846 8.23996C18.52 7.36912 17.5531 6.72129 16.4837 6.29649C15.4144 5.85044 14.2541 5.62742 13.0027 5.62742C11.7514 5.62742 10.6024 5.81858 9.5558 6.20091C8.53196 6.58323 7.63326 7.12485 6.8597 7.82578C6.10888 8.5267 5.51733 9.35507 5.08505 10.3109C4.67551 11.2667 4.47075 12.3181 4.47075 13.465C4.47075 14.612 4.67551 15.6634 5.08505 16.6192C5.51733 17.575 6.10888 18.4034 6.8597 19.1043C7.63326 19.8052 8.53196 20.3468 9.5558 20.7292C10.6024 21.1115 11.7514 21.3027 13.0027 21.3027C14.2541 21.3027 15.4144 21.0903 16.4837 20.6654C17.5531 20.2194 18.52 19.5503 19.3846 18.6583L22.2514 21.2071C21.1365 22.4178 19.7714 23.3417 18.156 23.9789C16.5406 24.6161 14.7432 24.9347 12.7638 24.9347Z" fill="#202A50"/>
<path d="M28.1064 31.02C27.2191 31.02 26.3318 30.882 25.4444 30.6058C24.5571 30.3297 23.8177 29.9474 23.2261 29.4589L24.9325 26.5277C25.3648 26.8888 25.854 27.1756 26.4 27.388C26.9461 27.6004 27.5035 27.7066 28.0723 27.7066C28.8458 27.7066 29.4715 27.526 29.9493 27.1649C30.4271 26.8039 30.8708 26.1985 31.2803 25.3489L32.3383 23.1187L32.6795 22.6408L39.5734 7.60276H43.6687L35.1367 25.9861C34.5679 27.2605 33.9309 28.2694 33.2256 29.0128C32.543 29.7562 31.7695 30.2766 30.9049 30.574C30.0631 30.8713 29.1302 31.02 28.1064 31.02ZM31.8605 25.2215L23.6357 7.60276H28.0723L34.7613 22.2903L31.8605 25.2215Z" fill="#202A50"/>
<path d="M56.9487 24.8391C55.4016 24.8391 54.0251 24.5205 52.8192 23.8833C51.6134 23.2461 50.6578 22.2903 49.9525 21.0159C49.2699 19.7203 48.9287 18.0848 48.9287 16.1094C48.9287 14.1129 49.2813 12.4774 49.9866 11.203C50.7147 9.92855 51.6816 8.98337 52.8875 8.3674C54.1161 7.7302 55.4698 7.4116 56.9487 7.4116C58.7461 7.4116 60.3274 7.77268 61.6925 8.49484C63.0803 9.21701 64.1724 10.2259 64.9687 11.5216C65.7878 12.8172 66.1973 14.3465 66.1973 16.1094C66.1973 17.8724 65.7878 19.4017 64.9687 20.6973C64.1724 21.993 63.0803 23.0125 61.6925 23.7559C60.3274 24.4781 58.7461 24.8391 56.9487 24.8391ZM46.8469 24.6161V0.97583H51.1128V11.5534L50.7716 16.0776L50.9081 20.6017V24.6161H46.8469ZM56.4709 21.4301C57.4947 21.4301 58.4048 21.2177 59.2011 20.7929C60.0202 20.3681 60.6686 19.7521 61.1464 18.945C61.6242 18.1379 61.8631 17.1927 61.8631 16.1094C61.8631 15.0049 61.6242 14.0598 61.1464 13.2739C60.6686 12.4668 60.0202 11.8508 59.2011 11.426C58.4048 11.0012 57.4947 10.7888 56.4709 10.7888C55.4471 10.7888 54.5256 11.0012 53.7066 11.426C52.8875 11.8508 52.2391 12.4668 51.7613 13.2739C51.2835 14.0598 51.0446 15.0049 51.0446 16.1094C51.0446 17.1927 51.2835 18.1379 51.7613 18.945C52.2391 19.7521 52.8875 20.3681 53.7066 20.7929C54.5256 21.2177 55.4471 21.4301 56.4709 21.4301Z" fill="#202A50"/>
<path d="M79.3211 24.8391C77.2962 24.8391 75.5215 24.4674 73.9972 23.724C72.4955 22.9594 71.3238 21.9186 70.482 20.6017C69.6629 19.2848 69.2534 17.7874 69.2534 16.1094C69.2534 14.4102 69.6515 12.9128 70.4479 11.6171C71.2669 10.3003 72.3818 9.27011 73.7924 8.52671C75.2258 7.7833 76.8525 7.4116 78.6727 7.4116C80.4473 7.4116 82.0286 7.77268 83.4164 8.49484C84.8043 9.21701 85.8964 10.2365 86.6927 11.5534C87.489 12.8703 87.8872 14.4208 87.8872 16.205C87.8872 16.3749 87.8758 16.5661 87.8531 16.7785C87.8531 16.9909 87.8417 17.1927 87.8189 17.3838H72.632V14.7394H85.5665L83.8942 15.5678C83.917 14.5908 83.7008 13.7305 83.2458 12.9871C82.7908 12.2437 82.1651 11.6596 81.3688 11.2348C80.5952 10.81 79.6965 10.5976 78.6727 10.5976C77.6261 10.5976 76.7046 10.81 75.9083 11.2348C75.1347 11.6596 74.5204 12.2544 74.0654 13.019C73.6331 13.7624 73.417 14.6439 73.417 15.6634V16.3006C73.417 17.3201 73.6673 18.2228 74.1678 19.0087C74.6683 19.7946 75.3736 20.3999 76.2837 20.8248C77.1938 21.2496 78.2404 21.462 79.4235 21.462C80.4473 21.462 81.3688 21.3133 82.1878 21.0159C83.0069 20.7186 83.735 20.2513 84.372 19.6141L86.6586 22.0673C85.8395 22.9594 84.8043 23.6497 83.5529 24.1382C82.3243 24.6055 80.9137 24.8391 79.3211 24.8391Z" fill="#202A50"/>
<path d="M92.4968 24.6161V7.60276H96.5581V12.2862L96.0803 10.9162C96.6263 9.76925 97.4795 8.89841 98.6399 8.30368C99.823 7.70896 101.29 7.4116 103.042 7.4116V11.203C102.86 11.1605 102.69 11.1392 102.53 11.1392C102.371 11.118 102.212 11.1074 102.053 11.1074C100.437 11.1074 99.1518 11.5534 98.1962 12.4455C97.2406 13.3164 96.7628 14.6226 96.7628 16.3643V24.6161H92.4968Z" fill="#202A50"/>
<path d="M112.686 24.6161L104.871 7.60276H109.307L116.03 22.6089H113.846L120.808 7.60276H124.904L117.088 24.6161H112.686Z" fill="#202A50"/>
<path d="M128.082 24.6161V7.60276H132.348V24.6161H128.082Z" fill="#202A50"/>
<path d="M136.957 24.6161V22.0992L148.185 9.41879L148.97 10.7888H137.162V7.60276H152.383V10.1197L141.155 22.8001L140.302 21.4301H152.69V24.6161H136.957Z" fill="#202A50"/>
<path d="M165.434 24.8391C163.409 24.8391 161.634 24.4674 160.11 23.724C158.608 22.9594 157.437 21.9186 156.595 20.6017C155.776 19.2848 155.366 17.7874 155.366 16.1094C155.366 14.4102 155.764 12.9128 156.561 11.6171C157.38 10.3003 158.495 9.27011 159.905 8.52671C161.339 7.7833 162.965 7.4116 164.785 7.4116C166.56 7.4116 168.141 7.77268 169.529 8.49484C170.917 9.21701 172.009 10.2365 172.806 11.5534C173.602 12.8703 174 14.4208 174 16.205C174 16.3749 173.989 16.5661 173.966 16.7785C173.966 16.9909 173.954 17.1927 173.932 17.3838H158.745V14.7394H171.679L170.007 15.5678C170.03 14.5908 169.814 13.7305 169.359 12.9871C168.904 12.2437 168.278 11.6596 167.482 11.2348C166.708 10.81 165.809 10.5976 164.785 10.5976C163.739 10.5976 162.817 10.81 162.021 11.2348C161.248 11.6596 160.633 12.2544 160.178 13.019C159.746 13.7624 159.53 14.6439 159.53 15.6634V16.3006C159.53 17.3201 159.78 18.2228 160.281 19.0087C160.781 19.7946 161.486 20.3999 162.397 20.8248C163.307 21.2496 164.353 21.462 165.536 21.462C166.56 21.462 167.482 21.3133 168.301 21.0159C169.12 20.7186 169.848 20.2513 170.485 19.6141L172.771 22.0673C171.952 22.9594 170.917 23.6497 169.666 24.1382C168.437 24.6055 167.027 24.8391 165.434 24.8391Z" fill="#202A50"/>
<path d="M130.1 5.25C129.283 5.25 128.607 4.99333 128.07 4.48C127.557 3.96667 127.3 3.34833 127.3 2.625C127.3 1.87833 127.557 1.26 128.07 0.769999C128.607 0.256666 129.283 0 130.1 0C130.917 0 131.582 0.244999 132.095 0.734999C132.632 1.20167 132.9 1.79667 132.9 2.52C132.9 3.29 132.643 3.94333 132.13 4.48C131.617 4.99333 130.94 5.25 130.1 5.25Z" fill="#6EC52F"/>
</svg>
