<svg width="71" height="65" viewBox="0 0 71 65" fill="none" xmlns="http://www.w3.org/2000/svg">
<path d="M59.1684 4.09205C40.3684 -1.50795 20.6684 1.75872 13.1684 4.09205V12.592L19.1684 11.092V8.09204C33.1684 5.29204 47.6684 6.92537 53.1684 8.09204C52.7683 22.892 43.335 37.592 38.6684 43.092L42.6684 46.592C52.6684 38.092 61.1684 10.592 59.1684 4.09205Z" fill="#6EC52F"/>
<path d="M47.7233 64.2465C61.5701 50.3517 68.0379 31.4591 69.541 23.7497L62.0579 19.7182L60.5326 25.7118L63.1737 27.1347C58.9986 40.7878 50.6834 52.7785 47.0476 57.0671C34.208 49.6954 25.7408 34.4184 23.1122 27.7014L18.1337 29.5628C20.8738 42.398 41.0523 62.9243 47.7233 64.2465Z" fill="#6EC52F"/>
<path d="M1 22.9008C5.44843 42.0061 18.045 57.5009 23.7872 62.8601L31.171 58.6494L26.8957 54.1804L24.2897 55.6665C14.9221 44.8921 9.15806 31.4871 7.44696 26.1314C20.5016 19.1474 37.9442 20.0599 45.0337 21.3892L46.0926 16.1807C33.755 11.7045 5.65566 17.9436 1 22.9008Z" fill="#6EC52F"/>
<path d="M59.1684 4.09205C40.3684 -1.50795 20.6684 1.75872 13.1684 4.09205V12.592L19.1684 11.092V8.09204C33.1684 5.29204 47.6684 6.92537 53.1684 8.09204C52.7683 22.892 43.335 37.592 38.6684 43.092L42.6684 46.592C52.6684 38.092 61.1684 10.592 59.1684 4.09205Z" stroke="#6EC52F"/>
<path d="M47.7233 64.2465C61.5701 50.3517 68.0379 31.4591 69.541 23.7497L62.0579 19.7182L60.5326 25.7118L63.1737 27.1347C58.9986 40.7878 50.6834 52.7785 47.0476 57.0671C34.208 49.6954 25.7408 34.4184 23.1122 27.7014L18.1337 29.5628C20.8738 42.398 41.0523 62.9243 47.7233 64.2465Z" stroke="#6EC52F"/>
<path d="M1 22.9008C5.44843 42.0061 18.045 57.5009 23.7872 62.8601L31.171 58.6494L26.8957 54.1804L24.2897 55.6665C14.9221 44.8921 9.15806 31.4871 7.44696 26.1314C20.5016 19.1474 37.9442 20.0599 45.0337 21.3892L46.0926 16.1807C33.755 11.7045 5.65566 17.9436 1 22.9008Z" stroke="#6EC52F"/>
</svg>
